<?xml version="1.0" standalone="no"?>
<!DOCTYPE svg PUBLIC "-//W3C//DTD SVG 20010904//EN"
 "http://www.w3.org/TR/2001/REC-SVG-20010904/DTD/svg10.dtd">
<svg version="1.0" xmlns="http://www.w3.org/2000/svg"
 width="2329.000000pt" height="803.000000pt" viewBox="0 0 2329.000000 803.000000"
 preserveAspectRatio="xMidYMid meet">

<g transform="translate(0.000000,803.000000) scale(0.100000,-0.100000)"
fill="#000000" stroke="none">
<path d="M0 4015 l0 -4015 11645 0 11645 0 0 4015 0 4015 -11645 0 -11645 0 0
-4015z m13673 1140 c26 -4 50 -12 53 -16 3 -5 16 -9 29 -9 14 0 40 -9 60 -20
20 -11 42 -20 50 -20 8 0 15 -4 15 -10 0 -17 -24 -13 -166 31 -40 12 -71 12
-79 -1 -4 -6 9 -10 32 -10 22 0 43 -4 49 -8 5 -5 29 -15 54 -22 74 -22 240
-111 320 -172 41 -30 84 -59 96 -62 19 -6 59 -47 148 -151 14 -16 26 -36 26
-42 0 -7 3 -13 8 -13 4 0 13 -15 20 -32 8 -18 17 -42 22 -53 20 -49 27 -75 52
-190 6 -27 11 -140 12 -250 2 -168 1 -172 -1 -25 -2 96 -7 178 -12 183 -10 10
-19 -127 -28 -431 -3 -133 -9 -245 -13 -247 -4 -3 -11 75 -15 173 -15 368 -20
354 -27 -71 -4 -231 -9 -421 -12 -424 -23 -23 -26 34 -26 446 0 482 -10 664
-41 756 -26 78 -71 165 -124 240 -57 82 -59 86 -41 79 9 -3 16 -11 16 -17 0
-6 3 -7 7 -3 4 3 -15 29 -43 57 -123 127 -307 216 -512 248 -90 14 -147 14
-231 0 -311 -50 -534 -215 -665 -489 l-40 -85 -8 -240 c-5 -132 -12 -325 -17
-430 -7 -180 -8 -184 -11 -75 -5 204 -18 42 -19 -238 -1 -236 -2 -253 -18
-250 -19 3 -19 -8 -33 953 -2 168 4 240 21 251 5 3 9 13 9 22 0 28 67 150 121
223 58 79 179 195 259 249 47 32 82 51 202 111 10 5 27 9 38 9 11 0 20 5 20
10 0 6 -9 10 -20 10 -11 0 -20 5 -20 10 0 6 10 10 23 10 12 0 31 7 42 16 12 9
30 12 47 8 16 -3 28 -1 28 4 0 6 8 12 17 14 32 6 277 1 326 -7z m4712 -52
c-11 -3 -24 -9 -29 -14 -6 -5 -20 -9 -33 -9 -13 0 -23 -5 -23 -11 0 -8 9 -9
28 -3 41 12 1212 17 1212 5 0 -7 -199 -11 -552 -13 l-553 -3 -91 -32 c-218
-76 -402 -237 -489 -428 -15 -31 -24 -64 -22 -73 3 -12 5 -10 6 6 0 12 6 22
11 22 6 0 10 6 10 13 0 7 9 23 20 35 11 12 20 24 20 27 0 8 57 80 102 130 37
41 118 94 118 78 0 -5 -25 -33 -56 -63 -110 -108 -173 -205 -230 -356 -14 -38
-30 -89 -34 -114 l-8 -45 -1 63 c-2 93 -21 67 -21 -27 0 -118 -19 -113 357
-101 298 10 587 33 647 51 37 12 88 11 118 0 48 -18 299 -40 528 -45 262 -7
443 -16 436 -23 -3 -3 -149 -9 -325 -14 -236 -6 -336 -12 -381 -24 -108 -28
-317 -48 -385 -36 -33 5 -87 13 -120 16 -33 3 -87 13 -119 21 -77 20 -701 37
-728 20 -20 -12 -26 -96 -7 -96 6 0 10 -23 9 -57 -1 -67 8 -131 21 -139 5 -3
9 -13 9 -22 0 -35 59 -135 137 -234 49 -62 159 -158 181 -158 6 0 12 -3 14 -8
6 -14 123 -70 183 -87 33 -10 71 -22 85 -29 17 -7 193 -13 565 -16 350 -3 540
-9 540 -15 0 -15 -1054 -19 -1125 -5 -218 46 -402 166 -544 355 -53 70 -123
204 -146 280 -7 22 -18 50 -23 63 l-11 23 -9 -23 -8 -23 -17 30 c-26 49 -42
170 -31 252 23 191 64 306 157 446 33 49 48 64 54 55 6 -9 7 -6 3 9 -6 23 31
72 104 138 115 103 338 215 426 213 22 0 31 -2 20 -5z m-5205 -13 c0 -5 -7
-10 -15 -10 -8 0 -15 5 -15 10 0 6 7 10 15 10 8 0 15 -4 15 -10z m-9690 -21
c141 -26 262 -73 362 -139 83 -56 246 -222 279 -285 15 -29 38 -56 54 -64 29
-14 60 -74 86 -166 18 -63 20 -415 3 -460 -7 -16 -18 -50 -25 -75 -21 -72
-103 -230 -152 -296 -49 -65 -130 -144 -147 -144 -17 0 -11 15 16 41 81 74
215 289 231 370 3 16 10 32 14 35 5 3 9 16 9 29 0 13 5 27 10 30 6 3 10 18 10
33 1 15 7 38 15 52 8 14 14 43 13 65 0 22 -3 31 -5 20 -15 -60 -79 -239 -106
-295 -74 -157 -250 -363 -359 -421 -13 -6 -25 -15 -28 -19 -12 -15 -143 -69
-215 -88 -130 -34 -151 -35 -652 -29 -274 3 -506 8 -515 12 -10 4 -18 13 -18
20 0 11 103 14 538 18 516 3 540 5 607 25 177 55 317 148 421 277 126 157 182
301 206 532 17 152 16 237 -1 293 -16 56 -85 193 -119 240 -30 40 -172 180
-183 180 -4 0 -14 6 -21 13 -36 32 -183 104 -268 129 -66 20 -130 22 -1118 37
-38 1 -54 5 -59 17 -3 9 0 20 8 25 19 12 1037 1 1109 -12z m5870 -519 c-1
-425 -2 -482 -15 -460 -14 24 -14 24 -15 -21 0 -25 -4 -59 -9 -75 -5 -16 -14
-54 -21 -84 -7 -30 -16 -62 -20 -70 -5 -8 -16 -35 -26 -60 -83 -200 -305 -401
-519 -470 -22 -7 -49 -16 -60 -21 -94 -36 -373 -48 -470 -19 -16 5 -50 14 -75
22 -62 17 -171 71 -239 117 -120 82 -267 258 -332 396 -57 123 -74 220 -75
435 -1 107 -5 322 -9 478 -6 210 -5 282 4 282 6 0 11 -10 11 -22 1 -18 5 -14
23 19 l22 41 19 -25 c16 -22 18 -37 12 -132 -23 -400 -16 -752 18 -826 8 -16
19 -55 26 -85 33 -152 91 -275 182 -387 139 -171 318 -259 548 -270 278 -14
481 59 661 237 74 73 89 94 108 150 13 36 31 86 42 111 20 49 38 114 46 167 3
19 11 32 20 32 8 0 22 17 31 38 15 33 17 85 17 477 0 345 3 449 14 480 19 56
18 55 51 42 l30 -11 0 -486z m4557 504 c-3 -3 -12 -4 -19 -1 -8 3 -5 6 6 6 11
1 17 -2 13 -5z m-6447 -1081 c11 -24 20 -47 20 -53 0 -6 4 -18 9 -28 5 -9 17
-45 27 -79 11 -35 22 -63 26 -63 5 0 8 -9 8 -20 0 -11 3 -20 8 -20 4 0 13 -15
21 -32 8 -18 21 -41 29 -51 8 -9 20 -26 26 -36 6 -11 35 -50 63 -87 29 -37 50
-70 48 -73 -8 -7 -91 77 -142 144 -39 51 -109 183 -133 250 -14 36 -28 99 -39
166 -13 76 -15 604 -3 790 5 91 8 4 10 -321 2 -420 3 -447 22 -487z m5428 765
c-63 -74 -104 -138 -140 -213 -16 -36 -31 -65 -33 -65 -7 0 17 77 37 120 39
82 161 230 176 215 3 -2 -16 -28 -40 -57z m-3671 -190 c-2 -29 -3 -8 -3 47 0
55 1 79 3 53 2 -26 2 -71 0 -100z m0 -490 c-3 -8 -6 -5 -6 6 -1 11 2 17 5 13
3 -3 4 -12 1 -19z m8610 -170 c-3 -8 -6 -5 -6 6 -1 11 2 17 5 13 3 -3 4 -12 1
-19z m20 -50 c-3 -8 -6 -5 -6 6 -1 11 2 17 5 13 3 -3 4 -12 1 -19z m-156 -38
c5 0 9 -7 9 -16 0 -9 8 -28 18 -42 10 -15 24 -40 32 -57 8 -16 18 -34 23 -40
4 -5 23 -30 42 -55 19 -25 35 -51 35 -57 0 -7 5 -13 12 -13 6 0 8 -3 4 -7 -7
-7 -66 55 -66 71 0 5 -8 16 -17 25 -22 19 -46 60 -74 121 -11 25 -25 53 -30
62 -5 10 -8 26 -8 35 1 12 3 11 6 -4 2 -13 9 -23 14 -23z m176 -2 c-3 -8 -6
-5 -6 6 -1 11 2 17 5 13 3 -3 4 -12 1 -19z m55 -76 c33 -51 150 -173 215 -224
34 -26 144 -83 188 -98 22 -7 45 -16 50 -20 6 -4 19 -10 30 -14 11 -3 -4 -3
-33 0 -30 3 -61 9 -70 13 -10 5 -30 15 -47 22 -66 30 -174 111 -240 181 -87
91 -99 107 -125 158 -30 59 -11 48 32 -18z m-3462 -472 c-8 -5 -17 -7 -19 -4
-3 3 1 9 9 14 8 5 17 7 19 4 3 -3 -1 -9 -9 -14z m-6353 -16 c-3 -3 -12 -4 -19
-1 -8 3 -5 6 6 6 11 1 17 -2 13 -5z m66 -21 c-7 -2 -21 -2 -30 0 -10 3 -4 5
12 5 17 0 24 -2 18 -5z m135 -20 c-15 -2 -42 -2 -60 0 -18 2 -6 4 27 4 33 0
48 -2 33 -4z m200 0 c-10 -2 -28 -2 -40 0 -13 2 -5 4 17 4 22 1 32 -1 23 -4z"/>
<path d="M13423 5123 c37 -2 96 -2 130 0 34 2 4 3 -68 3 -71 0 -99 -1 -62 -3z"/>
<path d="M13255 5110 c-4 -6 7 -10 27 -10 25 0 29 3 18 10 -19 13 -37 13 -45
0z"/>
<path d="M18258 5053 c6 -2 18 -2 25 0 6 3 1 5 -13 5 -14 0 -19 -2 -12 -5z"/>
<path d="M18218 5033 c7 -3 16 -2 19 1 4 3 -2 6 -13 5 -11 0 -14 -3 -6 -6z"/>
<path d="M18095 4978 c-29 -17 -60 -48 -49 -48 6 0 20 9 32 20 12 11 26 20 32
20 5 0 10 5 10 10 0 12 0 12 -25 -2z"/>
<path d="M17875 4799 c-11 -16 -1 -19 13 -3 7 8 8 14 3 14 -5 0 -13 -5 -16
-11z"/>
<path d="M17812 4480 c0 -14 2 -19 5 -12 2 6 2 18 0 25 -3 6 -5 1 -5 -13z"/>
<path d="M17791 4424 c0 -11 3 -14 6 -6 3 7 2 16 -1 19 -3 4 -6 -2 -5 -13z"/>
<path d="M18786 4218 c-23 -32 -20 -63 9 -94 24 -25 27 -26 51 -13 15 8 34 24
42 37 14 22 14 27 -3 58 -15 28 -24 34 -51 34 -23 0 -38 -7 -48 -22z"/>
<path d="M9334 4240 c0 -58 1 -81 3 -52 2 28 2 76 0 105 -2 28 -3 5 -3 -53z"/>
</g>
</svg>
