<?xml version="1.0" encoding="UTF-8"?>
<!DOCTYPE svg PUBLIC "-//W3C//DTD SVG 1.1//EN" "http://www.w3.org/Graphics/SVG/1.1/DTD/svg11.dtd">
<svg version="1.2" width="710.76mm" height="95.51mm" viewBox="0 0 71076 9551" preserveAspectRatio="xMidYMid" fill-rule="evenodd" stroke-width="28.222" stroke-linejoin="round" xmlns="http://www.w3.org/2000/svg" xmlns:ooo="http://xml.openoffice.org/svg/export" xmlns:xlink="http://www.w3.org/1999/xlink" xmlns:presentation="http://sun.com/xmlns/staroffice/presentation" xmlns:smil="http://www.w3.org/2001/SMIL20/" xmlns:anim="urn:oasis:names:tc:opendocument:xmlns:animation:1.0" xml:space="preserve">
 <defs class="ClipPathGroup">
  <clipPath id="presentation_clip_path" clipPathUnits="userSpaceOnUse">
   <rect x="0" y="0" width="71076" height="9551"/>
  </clipPath>
  <clipPath id="presentation_clip_path_shrink" clipPathUnits="userSpaceOnUse">
   <rect x="71" y="9" width="70934" height="9532"/>
  </clipPath>
 </defs>
 <defs class="TextShapeIndex">
  <g ooo:slide="id1" ooo:id-list="id3"/>
 </defs>
 <defs class="EmbeddedBulletChars">
  <g id="bullet-char-template-57356" transform="scale(0.00048828125,-0.00048828125)">
   <path d="M 580,1141 L 1163,571 580,0 -4,571 580,1141 Z"/>
  </g>
  <g id="bullet-char-template-57354" transform="scale(0.00048828125,-0.00048828125)">
   <path d="M 8,1128 L 1137,1128 1137,0 8,0 8,1128 Z"/>
  </g>
  <g id="bullet-char-template-10146" transform="scale(0.00048828125,-0.00048828125)">
   <path d="M 174,0 L 602,739 174,1481 1456,739 174,0 Z M 1358,739 L 309,1346 659,739 1358,739 Z"/>
  </g>
  <g id="bullet-char-template-10132" transform="scale(0.00048828125,-0.00048828125)">
   <path d="M 2015,739 L 1276,0 717,0 1260,543 174,543 174,936 1260,936 717,1481 1274,1481 2015,739 Z"/>
  </g>
  <g id="bullet-char-template-10007" transform="scale(0.00048828125,-0.00048828125)">
   <path d="M 0,-2 C -7,14 -16,27 -25,37 L 356,567 C 262,823 215,952 215,954 215,979 228,992 255,992 264,992 276,990 289,987 310,991 331,999 354,1012 L 381,999 492,748 772,1049 836,1024 860,1049 C 881,1039 901,1025 922,1006 886,937 835,863 770,784 769,783 710,716 594,584 L 774,223 C 774,196 753,168 711,139 L 727,119 C 717,90 699,76 672,76 641,76 570,178 457,381 L 164,-76 C 142,-110 111,-127 72,-127 30,-127 9,-110 8,-76 1,-67 -2,-52 -2,-32 -2,-23 -1,-13 0,-2 Z"/>
  </g>
  <g id="bullet-char-template-10004" transform="scale(0.00048828125,-0.00048828125)">
   <path d="M 285,-33 C 182,-33 111,30 74,156 52,228 41,333 41,471 41,549 55,616 82,672 116,743 169,778 240,778 293,778 328,747 346,684 L 369,508 C 377,444 397,411 428,410 L 1163,1116 C 1174,1127 1196,1133 1229,1133 1271,1133 1292,1118 1292,1087 L 1292,965 C 1292,929 1282,901 1262,881 L 442,47 C 390,-6 338,-33 285,-33 Z"/>
  </g>
  <g id="bullet-char-template-9679" transform="scale(0.00048828125,-0.00048828125)">
   <path d="M 813,0 C 632,0 489,54 383,161 276,268 223,411 223,592 223,773 276,916 383,1023 489,1130 632,1184 813,1184 992,1184 1136,1130 1245,1023 1353,916 1407,772 1407,592 1407,412 1353,268 1245,161 1136,54 992,0 813,0 Z"/>
  </g>
  <g id="bullet-char-template-8226" transform="scale(0.00048828125,-0.00048828125)">
   <path d="M 346,457 C 273,457 209,483 155,535 101,586 74,649 74,723 74,796 101,859 155,911 209,963 273,989 346,989 419,989 480,963 531,910 582,859 608,796 608,723 608,648 583,586 532,535 482,483 420,457 346,457 Z"/>
  </g>
  <g id="bullet-char-template-8211" transform="scale(0.00048828125,-0.00048828125)">
   <path d="M -4,459 L 1135,459 1135,606 -4,606 -4,459 Z"/>
  </g>
  <g id="bullet-char-template-61548" transform="scale(0.00048828125,-0.00048828125)">
   <path d="M 173,740 C 173,903 231,1043 346,1159 462,1274 601,1332 765,1332 928,1332 1067,1274 1183,1159 1299,1043 1357,903 1357,740 1357,577 1299,437 1183,322 1067,206 928,148 765,148 601,148 462,206 346,322 231,437 173,577 173,740 Z"/>
  </g>
 </defs>
 <g>
  <g id="id2" class="Master_Slide">
   <g id="bg-id2" class="Background"/>
   <g id="bo-id2" class="BackgroundObjects"/>
  </g>
 </g>
 <g class="SlideGroup">
  <g>
   <g id="container-id1">
    <g id="id1" class="Slide" clip-path="url(#presentation_clip_path)">
     <g class="Page">
      <g class="Graphic">
       <g id="id3">
        <rect class="BoundingBox" stroke="none" fill="none" x="0" y="0" width="71076" height="9551"/>
        <path fill="rgb(255,64,0)" stroke="none" d="M 0,0 L 71075,0 71075,9550 0,9550 0,0 Z"/>
        <path fill="rgb(0,0,0)" stroke="none" d="M 13,4775 L 13,9537 35537,9537 71062,9537 71062,4775 71062,13 35537,13 13,13 13,4775 13,4775 Z M 42180,1548 C 42272,1562 42357,1590 42367,1604 42378,1622 42424,1636 42469,1636 42519,1636 42611,1668 42681,1706 42752,1745 42829,1777 42858,1777 42886,1777 42910,1791 42910,1812 42910,1872 42826,1858 42325,1703 42184,1660 42074,1660 42046,1706 42032,1727 42078,1742 42159,1742 42237,1742 42311,1756 42332,1770 42350,1787 42434,1823 42522,1847 42783,1925 43369,2239 43651,2454 43796,2560 43948,2662 43990,2673 44057,2694 44198,2839 44512,3205 44561,3262 44604,3332 44604,3354 44604,3378 44614,3399 44632,3399 44646,3399 44678,3452 44703,3512 44731,3576 44763,3660 44780,3699 44851,3872 44875,3964 44964,4369 44985,4465 45002,4863 45006,5251 45013,5844 45009,5858 45002,5339 44995,5001 44978,4712 44960,4694 44925,4659 44893,5142 44861,6214 44851,6683 44830,7078 44815,7085 44801,7096 44777,6821 44763,6475 44710,5177 44692,5226 44667,6726 44653,7540 44636,8211 44625,8221 44544,8302 44533,8101 44533,6648 44533,4948 44498,4306 44389,3981 44297,3706 44138,3399 43951,3135 43750,2846 43743,2831 43807,2856 43838,2867 43863,2895 43863,2916 43863,2937 43874,2941 43888,2927 43902,2916 43835,2824 43736,2726 43302,2278 42653,1964 41930,1851 41612,1802 41411,1802 41115,1851 40018,2027 39231,2609 38769,3576 L 38628,3876 38600,4722 C 38582,5188 38557,5868 38540,6239 38515,6874 38511,6888 38501,6503 38483,5784 38437,6355 38434,7343 38430,8175 38427,8235 38370,8225 38303,8214 38303,8253 38254,4863 38247,4271 38268,4017 38328,3978 38346,3967 38360,3932 38360,3900 38360,3801 38596,3371 38787,3114 38991,2835 39418,2426 39700,2235 39866,2123 39989,2055 40413,1844 40448,1826 40508,1812 40547,1812 40586,1812 40617,1794 40617,1777 40617,1756 40586,1742 40547,1742 40508,1742 40476,1724 40476,1706 40476,1685 40512,1671 40557,1671 40600,1671 40667,1646 40706,1615 40748,1583 40811,1572 40871,1586 40928,1597 40970,1590 40970,1572 40970,1551 40998,1530 41030,1523 41143,1502 42007,1519 42180,1548 L 42180,1548 Z M 58803,1731 C 58764,1742 58718,1763 58701,1780 58679,1798 58630,1812 58584,1812 58538,1812 58503,1830 58503,1851 58503,1879 58535,1883 58602,1862 58746,1819 62877,1802 62877,1844 62877,1869 62175,1883 60930,1890 L 58979,1900 58658,2013 C 57889,2281 57240,2849 56933,3523 56880,3632 56849,3749 56856,3780 56866,3823 56873,3816 56877,3759 56877,3717 56898,3682 56916,3682 56937,3682 56951,3660 56951,3636 56951,3611 56983,3555 57021,3512 57060,3470 57092,3428 57092,3417 57092,3389 57293,3135 57452,2958 57582,2814 57868,2627 57868,2683 57868,2701 57780,2800 57670,2906 57282,3287 57060,3629 56859,4161 56810,4295 56753,4475 56739,4563 L 56711,4722 56707,4500 C 56700,4172 56633,4264 56633,4595 56633,5011 56566,4994 57893,4951 58944,4916 59964,4835 60175,4771 60306,4729 60486,4733 60591,4771 60761,4835 61646,4913 62454,4930 63378,4955 64017,4987 63992,5011 63982,5022 63467,5043 62846,5061 62013,5082 61660,5103 61502,5145 61121,5244 60383,5315 60143,5272 60027,5255 59837,5226 59720,5216 59604,5205 59413,5170 59300,5142 59029,5071 56827,5011 56732,5071 56662,5114 56640,5410 56707,5410 56729,5410 56743,5491 56739,5611 56736,5847 56767,6073 56813,6101 56831,6112 56845,6147 56845,6179 56845,6302 57053,6655 57328,7004 57501,7223 57889,7562 57967,7562 57988,7562 58009,7572 58016,7590 58037,7639 58450,7837 58662,7897 58778,7932 58912,7974 58962,7999 59022,8024 59642,8045 60955,8055 62190,8066 62860,8087 62860,8108 62860,8161 59142,8175 58891,8126 58122,7964 57473,7540 56972,6874 56785,6627 56538,6154 56457,5886 56432,5808 56393,5710 56376,5664 L 56337,5583 56305,5664 56277,5745 56217,5639 C 56125,5466 56069,5040 56108,4750 56189,4077 56333,3671 56662,3177 56778,3004 56831,2951 56852,2983 56873,3015 56877,3004 56863,2951 56841,2870 56972,2697 57230,2465 57635,2101 58422,1706 58732,1713 58810,1713 58842,1720 58803,1731 L 58803,1731 Z M 40441,1777 C 40441,1794 40416,1812 40388,1812 40360,1812 40335,1794 40335,1777 40335,1756 40360,1742 40388,1742 40416,1742 40441,1756 40441,1777 L 40441,1777 Z M 6257,1851 C 6755,1943 7182,2108 7534,2341 7827,2539 8402,3124 8519,3346 8572,3449 8653,3544 8709,3572 8811,3622 8921,3833 9012,4158 9076,4380 9083,5622 9023,5780 8998,5837 8960,5957 8935,6045 8861,6299 8572,6856 8399,7089 8226,7318 7940,7597 7880,7597 7820,7597 7841,7544 7937,7452 8222,7191 8695,6433 8751,6147 8762,6091 8787,6034 8801,6024 8818,6013 8833,5967 8833,5921 8833,5875 8850,5826 8868,5816 8889,5805 8903,5752 8903,5699 8907,5646 8928,5565 8956,5516 8984,5466 9005,5364 9002,5286 9002,5209 8991,5177 8984,5216 8931,5428 8706,6059 8610,6256 8349,6810 7728,7537 7344,7741 7298,7763 7256,7794 7245,7808 7203,7861 6741,8052 6487,8119 6028,8239 5954,8242 4187,8221 3220,8211 2402,8193 2370,8179 2334,8165 2306,8133 2306,8108 2306,8069 2670,8059 4204,8045 6024,8034 6109,8027 6346,7957 6970,7763 7464,7435 7831,6980 8275,6426 8473,5918 8557,5103 8617,4567 8614,4267 8554,4070 8497,3872 8254,3389 8134,3223 8028,3082 7527,2588 7488,2588 7474,2588 7439,2567 7414,2542 7287,2429 6769,2175 6469,2087 6236,2017 6010,2010 2525,1957 2391,1953 2334,1939 2317,1897 2306,1865 2317,1826 2345,1809 2412,1766 6003,1805 6257,1851 L 6257,1851 Z M 26965,3682 C 26962,5181 26958,5382 26912,5304 26863,5219 26863,5219 26859,5378 26859,5466 26845,5586 26828,5643 26810,5699 26778,5833 26753,5939 26729,6045 26697,6158 26683,6186 26665,6214 26626,6309 26591,6398 26298,7103 25515,7812 24760,8055 24683,8080 24587,8112 24549,8129 24217,8256 23233,8299 22891,8196 22834,8179 22714,8147 22626,8119 22407,8059 22023,7868 21783,7706 21360,7417 20841,6796 20612,6309 20411,5875 20351,5533 20347,4775 20344,4398 20329,3639 20315,3089 20294,2348 20298,2094 20329,2094 20351,2094 20368,2130 20368,2172 20372,2235 20386,2221 20449,2105 L 20527,1960 20594,2048 C 20650,2126 20658,2179 20636,2514 20555,3925 20580,5167 20700,5428 20728,5484 20767,5622 20792,5727 20908,6263 21113,6697 21434,7092 21924,7696 22555,8006 23367,8045 24348,8094 25064,7837 25699,7209 25960,6951 26013,6877 26080,6680 26126,6553 26189,6376 26228,6288 26298,6115 26362,5886 26390,5699 26401,5632 26429,5586 26461,5586 26489,5586 26538,5526 26570,5452 26623,5336 26630,5152 26630,3770 26630,2553 26641,2186 26679,2077 26746,1879 26743,1883 26859,1929 L 26965,1967 26965,3682 26965,3682 Z M 43041,1904 C 43030,1914 42999,1918 42974,1907 42946,1897 42956,1886 42995,1886 43034,1883 43055,1893 43041,1904 L 43041,1904 Z M 20298,5717 C 20336,5801 20368,5883 20368,5904 20368,5925 20382,5967 20400,6002 20418,6034 20460,6161 20495,6281 20534,6405 20573,6503 20587,6503 20605,6503 20615,6535 20615,6574 20615,6613 20626,6644 20643,6644 20658,6644 20689,6697 20717,6757 20746,6821 20792,6902 20820,6937 20848,6969 20890,7029 20912,7064 20933,7103 21035,7241 21134,7371 21236,7502 21310,7618 21303,7629 21275,7653 20982,7357 20802,7121 20665,6941 20418,6475 20333,6239 20284,6112 20234,5890 20195,5653 20150,5385 20142,3523 20185,2867 20202,2546 20213,2853 20220,3999 20227,5480 20231,5576 20298,5717 L 20298,5717 Z M 39446,3018 C 39224,3279 39079,3505 38952,3770 38896,3897 38843,3999 38836,3999 38811,3999 38896,3727 38966,3576 39104,3287 39534,2764 39587,2817 39598,2824 39531,2916 39446,3018 L 39446,3018 Z M 26496,3689 C 26489,3791 26485,3717 26485,3523 26485,3329 26489,3244 26496,3336 26503,3428 26503,3586 26496,3689 L 26496,3689 Z M 26496,5417 C 26485,5445 26475,5435 26475,5396 26471,5357 26482,5336 26492,5350 26503,5361 26507,5392 26496,5417 L 26496,5417 Z M 56870,6017 C 56859,6045 56849,6034 56849,5995 56845,5957 56856,5935 56866,5950 56877,5960 56880,5992 56870,6017 L 56870,6017 Z M 56940,6193 C 56930,6221 56919,6211 56919,6172 56916,6133 56926,6112 56937,6126 56947,6137 56951,6168 56940,6193 L 56940,6193 Z M 56390,6327 C 56408,6327 56422,6352 56422,6383 56422,6415 56450,6482 56485,6532 56520,6584 56570,6673 56598,6733 56626,6789 56662,6853 56679,6874 56693,6891 56760,6980 56827,7068 56894,7156 56951,7248 56951,7269 56951,7293 56968,7315 56993,7315 57014,7315 57021,7325 57007,7339 56983,7364 56774,7145 56774,7089 56774,7071 56746,7032 56714,7001 56637,6934 56552,6789 56453,6574 56415,6486 56365,6387 56348,6355 56330,6320 56319,6263 56319,6232 56323,6189 56330,6193 56341,6246 56348,6292 56372,6327 56390,6327 L 56390,6327 Z M 57011,6334 C 57000,6362 56990,6352 56990,6313 56986,6274 56997,6253 57007,6267 57018,6278 57021,6309 57011,6334 L 57011,6334 Z M 57205,6602 C 57321,6782 57734,7212 57963,7392 58083,7484 58471,7685 58627,7738 58704,7763 58785,7794 58803,7808 58824,7823 58870,7844 58909,7858 58948,7868 58895,7868 58792,7858 58686,7847 58577,7826 58545,7812 58510,7794 58440,7759 58380,7734 58147,7629 57766,7343 57533,7096 57226,6775 57184,6719 57092,6539 56986,6331 57053,6369 57205,6602 L 57205,6602 Z M 44992,8267 C 44964,8285 44932,8292 44925,8281 44914,8270 44928,8249 44957,8232 44985,8214 45017,8207 45024,8218 45034,8228 45020,8249 44992,8267 L 44992,8267 Z M 22580,8323 C 22570,8334 22538,8338 22513,8327 22485,8316 22495,8306 22534,8306 22573,8302 22594,8313 22580,8323 L 22580,8323 Z M 22813,8397 C 22788,8405 22739,8405 22707,8397 22672,8387 22693,8380 22749,8380 22809,8380 22834,8387 22813,8397 L 22813,8397 Z M 23289,8468 C 23236,8475 23141,8475 23078,8468 23014,8461 23056,8454 23173,8454 23289,8454 23342,8461 23289,8468 L 23289,8468 Z M 23995,8468 C 23959,8475 23896,8475 23854,8468 23808,8461 23836,8454 23914,8454 23991,8450 24027,8457 23995,8468 L 23995,8468 Z"/>
        <path fill="rgb(0,0,0)" stroke="none" d="M 41298,1660 C 41429,1668 41637,1668 41757,1660 41877,1653 41771,1650 41517,1650 41267,1650 41168,1653 41298,1660 L 41298,1660 Z"/>
        <path fill="rgb(0,0,0)" stroke="none" d="M 40706,1706 C 40692,1727 40730,1742 40801,1742 40889,1742 40903,1731 40864,1706 40797,1660 40734,1660 40706,1706 L 40706,1706 Z"/>
        <path fill="rgb(0,0,0)" stroke="none" d="M 58355,1907 C 58376,1914 58418,1914 58443,1907 58464,1897 58447,1890 58397,1890 58348,1890 58330,1897 58355,1907 L 58355,1907 Z"/>
        <path fill="rgb(0,0,0)" stroke="none" d="M 58214,1978 C 58238,1988 58270,1985 58281,1974 58295,1964 58274,1953 58235,1957 58196,1957 58186,1967 58214,1978 L 58214,1978 Z"/>
        <path fill="rgb(0,0,0)" stroke="none" d="M 57780,2172 C 57678,2232 57568,2341 57607,2341 57628,2341 57678,2309 57720,2271 57762,2232 57812,2200 57833,2200 57850,2200 57868,2182 57868,2165 57868,2123 57868,2123 57780,2172 L 57780,2172 Z"/>
        <path fill="rgb(0,0,0)" stroke="none" d="M 57004,2803 C 56965,2860 57000,2870 57050,2814 57074,2786 57078,2764 57060,2764 57043,2764 57014,2782 57004,2803 L 57004,2803 Z"/>
        <path fill="rgb(0,0,0)" stroke="none" d="M 56782,3928 C 56782,3978 56789,3995 56799,3971 56806,3950 56806,3907 56799,3883 56789,3861 56782,3879 56782,3928 L 56782,3928 Z"/>
        <path fill="rgb(0,0,0)" stroke="none" d="M 56707,4126 C 56707,4165 56718,4175 56729,4147 56739,4122 56736,4091 56725,4080 56714,4066 56704,4087 56707,4126 L 56707,4126 Z"/>
        <path fill="rgb(0,0,0)" stroke="none" d="M 60218,4853 C 60136,4965 60147,5075 60249,5184 60334,5272 60345,5276 60429,5230 60482,5202 60549,5145 60577,5100 60627,5022 60627,5004 60567,4895 60514,4796 60482,4775 60387,4775 60306,4775 60253,4800 60218,4853 L 60218,4853 Z"/>
        <path fill="rgb(0,0,0)" stroke="none" d="M 26873,4775 C 26873,4980 26877,5061 26884,4958 26891,4860 26891,4690 26884,4588 26877,4489 26873,4570 26873,4775 L 26873,4775 Z"/>
       </g>
      </g>
     </g>
    </g>
   </g>
  </g>
 </g>
</svg>