<?xml version="1.0" encoding="UTF-8"?>
<!DOCTYPE svg PUBLIC "-//W3C//DTD SVG 1.1//EN" "http://www.w3.org/Graphics/SVG/1.1/DTD/svg11.dtd">
<svg version="1.2" width="821.88mm" height="283.55mm" viewBox="0 0 82188 28355" preserveAspectRatio="xMidYMid" fill-rule="evenodd" stroke-width="28.222" stroke-linejoin="round" xmlns="http://www.w3.org/2000/svg" xmlns:ooo="http://xml.openoffice.org/svg/export" xmlns:xlink="http://www.w3.org/1999/xlink" xmlns:presentation="http://sun.com/xmlns/staroffice/presentation" xmlns:smil="http://www.w3.org/2001/SMIL20/" xmlns:anim="urn:oasis:names:tc:opendocument:xmlns:animation:1.0" xml:space="preserve">
 <defs class="ClipPathGroup">
  <clipPath id="presentation_clip_path" clipPathUnits="userSpaceOnUse">
   <rect x="0" y="0" width="82188" height="28355"/>
  </clipPath>
  <clipPath id="presentation_clip_path_shrink" clipPathUnits="userSpaceOnUse">
   <rect x="82" y="28" width="82024" height="28299"/>
  </clipPath>
 </defs>
 <defs class="TextShapeIndex">
  <g ooo:slide="id1" ooo:id-list="id3"/>
 </defs>
 <defs class="EmbeddedBulletChars">
  <g id="bullet-char-template-57356" transform="scale(0.00048828125,-0.00048828125)">
   <path d="M 580,1141 L 1163,571 580,0 -4,571 580,1141 Z"/>
  </g>
  <g id="bullet-char-template-57354" transform="scale(0.00048828125,-0.00048828125)">
   <path d="M 8,1128 L 1137,1128 1137,0 8,0 8,1128 Z"/>
  </g>
  <g id="bullet-char-template-10146" transform="scale(0.00048828125,-0.00048828125)">
   <path d="M 174,0 L 602,739 174,1481 1456,739 174,0 Z M 1358,739 L 309,1346 659,739 1358,739 Z"/>
  </g>
  <g id="bullet-char-template-10132" transform="scale(0.00048828125,-0.00048828125)">
   <path d="M 2015,739 L 1276,0 717,0 1260,543 174,543 174,936 1260,936 717,1481 1274,1481 2015,739 Z"/>
  </g>
  <g id="bullet-char-template-10007" transform="scale(0.00048828125,-0.00048828125)">
   <path d="M 0,-2 C -7,14 -16,27 -25,37 L 356,567 C 262,823 215,952 215,954 215,979 228,992 255,992 264,992 276,990 289,987 310,991 331,999 354,1012 L 381,999 492,748 772,1049 836,1024 860,1049 C 881,1039 901,1025 922,1006 886,937 835,863 770,784 769,783 710,716 594,584 L 774,223 C 774,196 753,168 711,139 L 727,119 C 717,90 699,76 672,76 641,76 570,178 457,381 L 164,-76 C 142,-110 111,-127 72,-127 30,-127 9,-110 8,-76 1,-67 -2,-52 -2,-32 -2,-23 -1,-13 0,-2 Z"/>
  </g>
  <g id="bullet-char-template-10004" transform="scale(0.00048828125,-0.00048828125)">
   <path d="M 285,-33 C 182,-33 111,30 74,156 52,228 41,333 41,471 41,549 55,616 82,672 116,743 169,778 240,778 293,778 328,747 346,684 L 369,508 C 377,444 397,411 428,410 L 1163,1116 C 1174,1127 1196,1133 1229,1133 1271,1133 1292,1118 1292,1087 L 1292,965 C 1292,929 1282,901 1262,881 L 442,47 C 390,-6 338,-33 285,-33 Z"/>
  </g>
  <g id="bullet-char-template-9679" transform="scale(0.00048828125,-0.00048828125)">
   <path d="M 813,0 C 632,0 489,54 383,161 276,268 223,411 223,592 223,773 276,916 383,1023 489,1130 632,1184 813,1184 992,1184 1136,1130 1245,1023 1353,916 1407,772 1407,592 1407,412 1353,268 1245,161 1136,54 992,0 813,0 Z"/>
  </g>
  <g id="bullet-char-template-8226" transform="scale(0.00048828125,-0.00048828125)">
   <path d="M 346,457 C 273,457 209,483 155,535 101,586 74,649 74,723 74,796 101,859 155,911 209,963 273,989 346,989 419,989 480,963 531,910 582,859 608,796 608,723 608,648 583,586 532,535 482,483 420,457 346,457 Z"/>
  </g>
  <g id="bullet-char-template-8211" transform="scale(0.00048828125,-0.00048828125)">
   <path d="M -4,459 L 1135,459 1135,606 -4,606 -4,459 Z"/>
  </g>
  <g id="bullet-char-template-61548" transform="scale(0.00048828125,-0.00048828125)">
   <path d="M 173,740 C 173,903 231,1043 346,1159 462,1274 601,1332 765,1332 928,1332 1067,1274 1183,1159 1299,1043 1357,903 1357,740 1357,577 1299,437 1183,322 1067,206 928,148 765,148 601,148 462,206 346,322 231,437 173,577 173,740 Z"/>
  </g>
 </defs>
 <g>
  <g id="id2" class="Master_Slide">
   <g id="bg-id2" class="Background"/>
   <g id="bo-id2" class="BackgroundObjects"/>
  </g>
 </g>
 <g class="SlideGroup">
  <g>
   <g id="container-id1">
    <g id="id1" class="Slide" clip-path="url(#presentation_clip_path)">
     <g class="Page">
      <g class="Graphic">
       <g id="id3">
        <rect class="BoundingBox" stroke="none" fill="none" x="-1" y="-1" width="82190" height="28357"/>
        <path fill="rgb(255,128,0)" stroke="none" d="M 0,0 L 82187,0 82187,28354 0,28354 0,0 Z"/>
        <path fill="rgb(0,0,0)" stroke="none" d="M 13,14177 L 13,28341 41093,28341 82174,28341 82174,14177 82174,13 41093,13 13,13 13,14177 13,14177 Z M 48248,10155 C 48339,10170 48424,10198 48435,10212 48445,10229 48491,10244 48537,10244 48586,10244 48678,10275 48749,10314 48819,10353 48897,10385 48925,10385 48953,10385 48978,10399 48978,10420 48978,10480 48893,10466 48392,10311 48251,10268 48142,10268 48114,10314 48100,10335 48145,10349 48227,10349 48304,10349 48378,10364 48399,10378 48417,10395 48502,10431 48590,10455 48851,10533 49437,10847 49719,11062 49863,11168 50015,11270 50057,11281 50124,11302 50266,11447 50580,11813 50629,11870 50671,11940 50671,11962 50671,11986 50682,12007 50699,12007 50714,12007 50745,12060 50770,12120 50798,12184 50830,12269 50848,12307 50918,12480 50943,12572 51031,12978 51052,13073 51070,13471 51073,13860 51080,14452 51077,14466 51070,13948 51063,13609 51045,13320 51028,13302 50992,13267 50961,13750 50929,14823 50918,15292 50897,15687 50883,15694 50869,15705 50844,15429 50830,15084 50777,13785 50759,13835 50735,15334 50721,16149 50703,16819 50692,16830 50611,16911 50601,16710 50601,15256 50601,13556 50565,12914 50456,12590 50364,12314 50206,12007 50019,11743 49818,11454 49810,11439 49874,11464 49906,11475 49930,11503 49930,11524 49930,11545 49941,11549 49955,11535 49969,11524 49902,11432 49803,11334 49370,10886 48720,10572 47997,10459 47680,10409 47479,10409 47182,10459 46085,10635 45299,11217 44836,12184 L 44695,12484 44667,13330 C 44649,13796 44625,14477 44607,14847 44582,15482 44579,15496 44568,15112 44551,14392 44505,14964 44501,15951 44498,16784 44494,16844 44438,16833 44371,16823 44371,16862 44321,13471 44314,12879 44335,12625 44395,12586 44413,12575 44427,12540 44427,12508 44427,12410 44664,11979 44854,11722 45059,11443 45486,11034 45768,10843 45934,10730 46057,10663 46480,10452 46516,10434 46576,10420 46614,10420 46653,10420 46685,10402 46685,10385 46685,10364 46653,10349 46614,10349 46576,10349 46544,10332 46544,10314 46544,10293 46579,10279 46625,10279 46667,10279 46734,10254 46773,10222 46815,10191 46879,10180 46939,10194 46995,10205 47038,10198 47038,10180 47038,10159 47066,10138 47098,10131 47211,10110 48075,10127 48248,10155 L 48248,10155 Z M 64870,10339 C 64832,10349 64786,10371 64768,10388 64747,10406 64697,10420 64652,10420 64606,10420 64570,10438 64570,10459 64570,10487 64602,10491 64669,10469 64814,10427 68945,10409 68945,10452 68945,10476 68243,10491 66998,10498 L 65047,10508 64726,10621 C 63957,10889 63308,11457 63001,12131 62948,12240 62916,12357 62923,12388 62934,12431 62941,12424 62944,12367 62944,12325 62965,12290 62983,12290 63004,12290 63018,12269 63018,12244 63018,12219 63050,12163 63089,12120 63128,12078 63159,12036 63159,12025 63159,11997 63360,11743 63519,11566 63650,11422 63935,11235 63935,11291 63935,11309 63847,11408 63738,11514 63350,11895 63128,12237 62927,12769 62877,12903 62821,13083 62807,13172 L 62778,13330 62775,13108 C 62768,12780 62701,12872 62701,13203 62701,13620 62634,13602 63960,13560 65011,13524 66031,13443 66243,13380 66373,13337 66553,13341 66659,13380 66828,13443 67714,13521 68522,13538 69446,13563 70084,13595 70060,13620 70049,13630 69534,13651 68913,13669 68081,13690 67728,13711 67569,13754 67188,13852 66451,13923 66211,13881 66094,13863 65904,13835 65788,13824 65671,13814 65481,13778 65368,13750 65096,13680 62895,13620 62800,13680 62729,13722 62708,14018 62775,14018 62796,14018 62810,14099 62807,14219 62803,14456 62835,14681 62881,14710 62898,14720 62912,14756 62912,14787 62912,14911 63121,15264 63396,15613 63569,15831 63957,16170 64034,16170 64055,16170 64077,16181 64084,16198 64105,16248 64518,16445 64729,16505 64846,16541 64980,16583 65029,16608 65089,16632 65710,16653 67022,16664 68257,16675 68927,16696 68927,16717 68927,16770 65209,16784 64959,16735 64189,16572 63540,16149 63039,15482 62852,15235 62606,14763 62524,14494 62500,14417 62461,14318 62443,14272 L 62404,14191 62373,14272 62344,14353 62284,14248 C 62193,14075 62136,13648 62175,13359 62256,12685 62401,12279 62729,11785 62845,11612 62898,11559 62919,11591 62941,11623 62944,11612 62930,11559 62909,11478 63039,11305 63297,11073 63703,10709 64489,10314 64800,10321 64877,10321 64909,10328 64870,10339 L 64870,10339 Z M 46509,10385 C 46509,10402 46484,10420 46456,10420 46427,10420 46403,10402 46403,10385 46403,10364 46427,10349 46456,10349 46484,10349 46509,10364 46509,10385 L 46509,10385 Z M 12325,10459 C 12822,10551 13249,10716 13602,10949 13895,11147 14470,11732 14586,11955 14639,12057 14720,12152 14777,12180 14879,12230 14988,12441 15080,12766 15144,12988 15151,14230 15091,14389 15066,14445 15027,14565 15003,14653 14928,14907 14639,15465 14466,15697 14293,15927 14008,16205 13948,16205 13888,16205 13909,16153 14004,16061 14290,15800 14763,15041 14819,14756 14830,14699 14854,14643 14868,14632 14886,14621 14900,14576 14900,14530 14900,14484 14918,14435 14935,14424 14957,14413 14971,14360 14971,14308 14974,14255 14995,14173 15024,14124 15052,14075 15073,13972 15070,13895 15070,13817 15059,13785 15052,13824 14999,14036 14773,14667 14678,14865 14417,15419 13796,16145 13412,16350 13366,16371 13323,16403 13313,16417 13270,16470 12808,16661 12554,16728 12096,16847 12022,16851 10254,16830 9288,16819 8469,16802 8437,16788 8402,16773 8374,16742 8374,16717 8374,16678 8737,16668 10272,16653 12092,16643 12177,16636 12413,16565 13038,16371 13531,16043 13898,15588 14343,15034 14540,14526 14625,13711 14685,13175 14681,12875 14622,12678 14565,12480 14322,11997 14202,11831 14096,11690 13595,11196 13556,11196 13542,11196 13507,11175 13482,11150 13355,11037 12836,10783 12537,10695 12304,10625 12078,10618 8593,10565 8459,10561 8402,10547 8385,10505 8374,10473 8385,10434 8413,10416 8480,10374 12071,10413 12325,10459 L 12325,10459 Z M 33033,12290 C 33029,13789 33026,13990 32980,13912 32930,13828 32930,13828 32927,13987 32927,14075 32913,14195 32895,14251 32877,14308 32846,14442 32821,14547 32796,14653 32765,14766 32750,14794 32733,14823 32694,14918 32659,15006 32366,15712 31583,16421 30828,16664 30750,16689 30655,16720 30616,16738 30285,16865 29300,16907 28958,16805 28902,16788 28782,16756 28694,16728 28475,16668 28090,16477 27850,16315 27427,16026 26909,15405 26679,14918 26478,14484 26418,14142 26415,13383 26411,13006 26397,12247 26383,11697 26362,10956 26365,10702 26397,10702 26418,10702 26436,10737 26436,10780 26439,10843 26453,10829 26517,10713 L 26595,10568 26662,10656 C 26718,10734 26725,10787 26704,11122 26623,12533 26647,13775 26767,14036 26796,14092 26834,14230 26859,14336 26976,14872 27180,15306 27501,15701 27992,16304 28623,16615 29434,16653 30415,16703 31131,16445 31766,15817 32027,15560 32080,15486 32147,15288 32193,15161 32257,14985 32295,14897 32366,14724 32429,14494 32458,14308 32468,14240 32496,14195 32528,14195 32556,14195 32606,14135 32638,14061 32690,13944 32698,13761 32698,12378 32698,11161 32708,10794 32747,10685 32814,10487 32810,10491 32927,10536 L 33033,10575 33033,12290 33033,12290 Z M 49108,10512 C 49098,10522 49066,10526 49041,10515 49013,10505 49024,10494 49063,10494 49101,10491 49123,10501 49108,10512 L 49108,10512 Z M 26365,14325 C 26404,14410 26436,14491 26436,14512 26436,14533 26450,14576 26468,14611 26485,14643 26528,14770 26563,14890 26602,15013 26640,15112 26655,15112 26672,15112 26683,15144 26683,15182 26683,15221 26693,15253 26711,15253 26725,15253 26757,15306 26785,15366 26813,15429 26859,15510 26887,15546 26916,15578 26958,15637 26979,15673 27000,15712 27103,15849 27201,15980 27304,16110 27378,16227 27371,16237 27342,16262 27050,15966 26870,15729 26732,15549 26485,15084 26401,14847 26351,14720 26302,14498 26263,14262 26217,13994 26210,12131 26252,11475 26270,11154 26281,11461 26288,12607 26295,14089 26298,14184 26365,14325 L 26365,14325 Z M 45514,11626 C 45291,11888 45147,12113 45020,12378 44963,12505 44910,12607 44903,12607 44879,12607 44963,12336 45034,12184 45172,11895 45602,11372 45655,11425 45665,11432 45598,11524 45514,11626 L 45514,11626 Z M 32563,12297 C 32556,12399 32553,12325 32553,12131 32553,11937 32556,11852 32563,11944 32571,12036 32571,12194 32563,12297 L 32563,12297 Z M 32563,14025 C 32553,14054 32542,14043 32542,14004 32539,13965 32549,13944 32560,13958 32571,13969 32574,14001 32563,14025 L 32563,14025 Z M 62937,14625 C 62927,14653 62916,14643 62916,14604 62912,14565 62923,14544 62934,14558 62944,14569 62948,14600 62937,14625 L 62937,14625 Z M 63008,14801 C 62997,14830 62987,14819 62987,14780 62983,14741 62994,14720 63004,14734 63015,14745 63018,14777 63008,14801 L 63008,14801 Z M 62457,14935 C 62475,14935 62489,14960 62489,14992 62489,15024 62517,15091 62553,15140 62588,15193 62637,15281 62665,15341 62694,15398 62729,15461 62747,15482 62761,15500 62828,15588 62895,15676 62962,15764 63018,15856 63018,15877 63018,15902 63036,15923 63061,15923 63082,15923 63089,15934 63075,15948 63050,15973 62842,15754 62842,15697 62842,15680 62814,15641 62782,15609 62704,15542 62620,15398 62521,15182 62482,15094 62433,14995 62415,14964 62397,14928 62387,14872 62387,14840 62390,14798 62397,14801 62408,14854 62415,14900 62440,14935 62457,14935 L 62457,14935 Z M 63078,14943 C 63068,14971 63057,14960 63057,14921 63054,14883 63064,14861 63075,14875 63085,14886 63089,14918 63078,14943 L 63078,14943 Z M 63272,15211 C 63389,15391 63801,15821 64031,16001 64151,16093 64539,16294 64694,16347 64772,16371 64853,16403 64870,16417 64891,16431 64937,16452 64976,16466 65015,16477 64962,16477 64860,16466 64754,16456 64645,16435 64613,16421 64578,16403 64507,16368 64447,16343 64214,16237 63833,15951 63600,15705 63293,15383 63251,15327 63159,15147 63054,14939 63121,14978 63272,15211 L 63272,15211 Z M 51059,16876 C 51031,16893 50999,16900 50992,16890 50982,16879 50996,16858 51024,16840 51052,16823 51084,16816 51091,16826 51102,16837 51088,16858 51059,16876 L 51059,16876 Z M 28648,16932 C 28637,16943 28605,16946 28581,16936 28552,16925 28563,16915 28602,16915 28641,16911 28662,16922 28648,16932 L 28648,16932 Z M 28881,17006 C 28856,17013 28806,17013 28775,17006 28739,16996 28761,16989 28817,16989 28877,16989 28902,16996 28881,17006 L 28881,17006 Z M 29357,17077 C 29304,17084 29209,17084 29145,17077 29082,17070 29124,17063 29240,17063 29357,17063 29410,17070 29357,17077 L 29357,17077 Z M 30062,17077 C 30027,17084 29964,17084 29921,17077 29875,17070 29904,17063 29981,17063 30059,17059 30094,17066 30062,17077 L 30062,17077 Z"/>
        <path fill="rgb(0,0,0)" stroke="none" d="M 47366,10268 C 47496,10275 47704,10275 47824,10268 47944,10261 47838,10258 47585,10258 47334,10258 47235,10261 47366,10268 L 47366,10268 Z"/>
        <path fill="rgb(0,0,0)" stroke="none" d="M 46773,10314 C 46759,10335 46798,10349 46868,10349 46957,10349 46971,10339 46932,10314 46865,10268 46801,10268 46773,10314 L 46773,10314 Z"/>
        <path fill="rgb(0,0,0)" stroke="none" d="M 64422,10515 C 64443,10522 64486,10522 64510,10515 64532,10505 64514,10498 64465,10498 64415,10498 64398,10505 64422,10515 L 64422,10515 Z"/>
        <path fill="rgb(0,0,0)" stroke="none" d="M 64281,10586 C 64306,10596 64338,10593 64348,10582 64362,10572 64341,10561 64302,10565 64264,10565 64253,10575 64281,10586 L 64281,10586 Z"/>
        <path fill="rgb(0,0,0)" stroke="none" d="M 63847,10780 C 63745,10840 63636,10949 63674,10949 63696,10949 63745,10917 63787,10879 63830,10840 63879,10808 63900,10808 63918,10808 63935,10790 63935,10773 63935,10730 63935,10730 63847,10780 L 63847,10780 Z"/>
        <path fill="rgb(0,0,0)" stroke="none" d="M 63071,11411 C 63032,11468 63068,11478 63117,11422 63142,11394 63145,11372 63128,11372 63110,11372 63082,11390 63071,11411 L 63071,11411 Z"/>
        <path fill="rgb(0,0,0)" stroke="none" d="M 62849,12537 C 62849,12586 62856,12604 62867,12579 62874,12558 62874,12515 62867,12491 62856,12470 62849,12487 62849,12537 L 62849,12537 Z"/>
        <path fill="rgb(0,0,0)" stroke="none" d="M 62775,12734 C 62775,12773 62785,12784 62796,12755 62807,12731 62803,12699 62792,12688 62782,12674 62771,12695 62775,12734 L 62775,12734 Z"/>
        <path fill="rgb(0,0,0)" stroke="none" d="M 66285,13461 C 66204,13574 66214,13683 66317,13792 66401,13881 66412,13884 66497,13838 66550,13810 66617,13754 66645,13708 66694,13630 66694,13613 66634,13503 66581,13404 66550,13383 66454,13383 66373,13383 66320,13408 66285,13461 L 66285,13461 Z"/>
        <path fill="rgb(0,0,0)" stroke="none" d="M 32941,13383 C 32941,13588 32944,13669 32952,13567 32959,13468 32959,13299 32952,13196 32944,13098 32941,13179 32941,13383 L 32941,13383 Z"/>
        <path fill="none" stroke="rgb(255,64,0)" d="M 0,0 L 82187,0 82187,28354 0,28354 0,0 Z"/>
       </g>
      </g>
     </g>
    </g>
   </g>
  </g>
 </g>
</svg>